# xmcd
#
# Track frame offsets:
#	150
#	11322
#	26596
#	44560
#	57831
#	70462
#	83943
#	98020
#	111522
#	122216
#	136399
#	148585
#	159847
#	174923
#
# Disc length: 2504 seconds
#
# Revision: 1
# Processed by: cddbd v1.5.1PL0 Copyright (c) Steve Scherf et al.
# Submitted via: audiograbber 1.83.01
#
DISCID=bb09c60e
DTITLE=Various Artist - Yesterday - Solistas españoles de los 60
DYEAR=1900
DGENRE=
TTITLE0=Miguel Rios - Vuelvo A Granada
TTITLE1=Massiel - Aleluya, Num. 1
TTITLE2=Tony Landa - Una Sencilla Canción De Amor
TTITLE3=Maria Ostiz - No Sabes Como Sufrí
TTITLE4=José Guardiola - Diecisís Toneladas
TTITLE5=Juan Pardo - Ya Se Acabó
TTITLE6=Junior - El Tren De Las Penas Mías
TTITLE7=Karina - La Fiesta
TTITLE8=Bruno Lomas - Amor Amargo
TTITLE9=Marisol - Mamy Panchita
TTITLE10=Tito Mora - Tú No Tienes Corazón
TTITLE11=Luis Gardey - Se Llama María
TTITLE12=Jaime Morey - ¡Dios, Como Te Amo!
TTITLE13=Billy Cafaro - María
EXTD=
EXTT0=
EXTT1=
EXTT2=
EXTT3=
EXTT4=
EXTT5=
EXTT6=
EXTT7=
EXTT8=
EXTT9=
EXTT10=
EXTT11=
EXTT12=
EXTT13=
PLAYORDER=
